<svg width="213" height="80" viewBox="0 0 213 80" fill="none" xmlns="http://www.w3.org/2000/svg">
<path d="M110.092 60.4516V49.9269C111.749 51.744 114.025 52.6525 116.918 52.6525C119.025 52.6525 120.942 52.1702 122.669 51.2058C124.397 50.2414 125.752 48.8857 126.736 47.1385C127.719 45.3914 128.21 43.3577 128.21 41.0376C128.21 38.7174 127.719 36.6837 126.736 34.9366C125.752 33.1895 124.397 31.8337 122.669 30.8693C120.942 29.9049 119.025 29.4227 116.918 29.4227C113.8 29.4227 111.426 30.4011 109.797 32.3578V29.7581H103.519V60.4516H110.092ZM115.78 47.2853C114.095 47.2853 112.711 46.7192 111.63 45.5871C110.548 44.4549 110.008 42.9384 110.008 41.0376C110.008 39.1367 110.548 37.6202 111.63 36.488C112.711 35.3559 114.095 34.7898 115.78 34.7898C117.466 34.7898 118.849 35.3559 119.931 36.488C121.012 37.6202 121.553 39.1367 121.553 41.0376C121.553 42.9384 121.012 44.4549 119.931 45.5871C118.849 46.7192 117.466 47.2853 115.78 47.2853ZM140.577 52.6525C141.982 52.6525 143.288 52.3939 144.496 51.8767C145.704 51.3596 146.743 50.6118 147.614 49.6334V52.317H153.85V29.7581H147.277V40.9118C147.277 42.9245 146.799 44.441 145.844 45.4613C144.889 46.4816 143.625 46.9918 142.052 46.9918C138.99 46.9918 137.459 45.1748 137.459 41.5407V29.7581H130.886V42.5052C130.886 45.8596 131.757 48.3895 133.498 50.0947C135.24 51.7999 137.6 52.6525 140.577 52.6525ZM164.953 52.317V18.248H158.38V52.317H164.953ZM177.109 52.6525C179.329 52.6525 181.246 52.352 182.861 51.7509C184.476 51.1499 185.705 50.3043 186.548 49.2141C187.391 48.1239 187.812 46.88 187.812 45.4823C187.812 43.833 187.377 42.5471 186.506 41.6246C185.635 40.7021 184.61 40.0662 183.43 39.7167C182.25 39.3673 180.733 39.0389 178.879 38.7314C177.222 38.4798 176.014 38.2142 175.255 37.9347C174.497 37.6551 174.118 37.1659 174.118 36.4671C174.118 35.8521 174.469 35.3489 175.171 34.9576C175.873 34.5662 176.927 34.3705 178.331 34.3705C180.691 34.3705 182.868 34.9296 184.863 36.0478L187.054 31.3934C186.014 30.7784 184.701 30.2962 183.114 29.9468C181.527 29.5974 179.933 29.4227 178.331 29.4227C176.168 29.4227 174.293 29.7302 172.706 30.3452C171.119 30.9601 169.911 31.8197 169.083 32.9239C168.254 34.0281 167.839 35.293 167.839 36.7187C167.839 38.4239 168.282 39.7377 169.167 40.6602C170.052 41.5827 171.098 42.2256 172.306 42.589C173.514 42.9524 175.045 43.2739 176.899 43.5534C178.472 43.7491 179.638 43.9867 180.396 44.2663C181.155 44.5458 181.534 45.007 181.534 45.65C181.534 47.0197 180.143 47.7046 177.362 47.7046C175.986 47.7046 174.581 47.5019 173.149 47.0966C171.716 46.6913 170.494 46.1671 169.483 45.5242L167.292 50.2205C168.359 50.9193 169.792 51.4994 171.59 51.9606C173.387 52.4218 175.227 52.6525 177.109 52.6525ZM201.527 52.6525C205.629 52.6525 208.747 51.4365 210.882 49.0045L207.384 45.2307C206.598 45.9854 205.748 46.5375 204.835 46.8869C203.922 47.2364 202.876 47.4111 201.696 47.4111C199.982 47.4111 198.55 47.0057 197.398 46.1951C196.246 45.3844 195.516 44.2802 195.207 42.8825H212.356C212.441 41.7923 212.483 41.2053 212.483 41.1214C212.483 38.7733 211.97 36.7117 210.945 34.9366C209.92 33.1615 208.508 31.7988 206.71 30.8483C204.912 29.8979 202.904 29.4227 200.685 29.4227C198.409 29.4227 196.352 29.9189 194.512 30.9112C192.672 31.9036 191.225 33.2873 190.172 35.0624C189.118 36.8375 188.592 38.8292 188.592 41.0376C188.592 43.2739 189.125 45.2726 190.193 47.0337C191.26 48.7948 192.777 50.1715 194.743 51.1639C196.71 52.1563 198.971 52.6525 201.527 52.6525ZM206.289 39.0668H195.123C195.347 37.6132 195.965 36.4671 196.977 35.6285C197.988 34.7898 199.238 34.3705 200.727 34.3705C202.188 34.3705 203.424 34.7968 204.435 35.6494C205.446 36.502 206.064 37.6412 206.289 39.0668Z" fill="white"/>
<path opacity="0.5" d="M107.157 27.8129C108.017 27.8129 108.76 27.6964 109.386 27.4635C110.012 27.2307 110.488 26.903 110.814 26.4805C111.141 26.0581 111.304 25.576 111.304 25.0344C111.304 24.3953 111.135 23.8971 110.798 23.5396C110.461 23.1821 110.063 22.9357 109.606 22.8003C109.149 22.6649 108.561 22.5376 107.843 22.4185C107.2 22.321 106.732 22.2181 106.438 22.1097C106.145 22.0014 105.998 21.8119 105.998 21.5411C105.998 21.3027 106.134 21.1078 106.406 20.9561C106.678 20.8045 107.086 20.7286 107.63 20.7286C108.545 20.7286 109.388 20.9453 110.161 21.3786L111.01 19.575C110.608 19.3367 110.099 19.1498 109.484 19.0144C108.869 18.879 108.251 18.8113 107.63 18.8113C106.792 18.8113 106.066 18.9305 105.451 19.1688C104.836 19.4071 104.368 19.7402 104.046 20.1681C103.725 20.5959 103.565 21.0861 103.565 21.6385C103.565 22.2993 103.736 22.8084 104.079 23.1659C104.422 23.5233 104.827 23.7725 105.296 23.9133C105.764 24.0541 106.357 24.1787 107.075 24.287C107.685 24.3628 108.137 24.4549 108.43 24.5632C108.724 24.6716 108.871 24.8503 108.871 25.0994C108.871 25.6302 108.333 25.8956 107.255 25.8956C106.722 25.8956 106.177 25.8171 105.622 25.66C105.067 25.5029 104.593 25.2998 104.202 25.0507L103.353 26.8705C103.766 27.1413 104.321 27.3661 105.018 27.5448C105.715 27.7235 106.428 27.8129 107.157 27.8129ZM116.439 27.8129C117.365 27.8129 118.192 27.6206 118.921 27.2361C119.65 26.8515 120.222 26.318 120.635 25.6356C121.049 24.9532 121.256 24.1787 121.256 23.3121C121.256 22.4455 121.049 21.671 120.635 20.9886C120.222 20.3062 119.65 19.7727 118.921 19.3882C118.192 19.0036 117.365 18.8113 116.439 18.8113C115.514 18.8113 114.684 19.0036 113.949 19.3882C113.215 19.7727 112.64 20.3062 112.227 20.9886C111.813 21.671 111.606 22.4455 111.606 23.3121C111.606 24.1787 111.813 24.9532 112.227 25.6356C112.64 26.318 113.215 26.8515 113.949 27.2361C114.684 27.6206 115.514 27.8129 116.439 27.8129ZM116.439 25.7331C115.786 25.7331 115.247 25.5138 114.823 25.0751C114.398 24.6363 114.186 24.0487 114.186 23.3121C114.186 22.5755 114.398 21.9879 114.823 21.5492C115.247 21.1105 115.786 20.8911 116.439 20.8911C117.092 20.8911 117.628 21.1105 118.048 21.5492C118.467 21.9879 118.676 22.5755 118.676 23.3121C118.676 24.0487 118.467 24.6363 118.048 25.0751C117.628 25.5138 117.092 25.7331 116.439 25.7331ZM124.889 27.6829V15.6267H122.342V27.6829H124.889ZM129.191 27.6829V23.5558C129.191 22.7434 129.398 22.1341 129.812 21.7279C130.225 21.3217 130.797 21.1186 131.526 21.1186C131.575 21.1186 131.647 21.1213 131.742 21.1267L131.903 21.1369C131.962 21.1409 132.027 21.1457 132.098 21.1511V18.8113C131.423 18.8113 130.827 18.9197 130.31 19.1363C129.793 19.353 129.382 19.6725 129.077 20.095V18.9413H126.644V27.6829H129.191ZM134.277 17.7227C134.745 17.7227 135.126 17.5846 135.42 17.3084C135.714 17.0322 135.861 16.6828 135.861 16.2604C135.861 15.8704 135.714 15.5454 135.42 15.2855C135.126 15.0255 134.745 14.8955 134.277 14.8955C133.809 14.8955 133.428 15.0309 133.134 15.3017C132.841 15.5725 132.694 15.9083 132.694 16.3091C132.694 16.7099 132.841 17.0457 133.134 17.3165C133.428 17.5873 133.809 17.7227 134.277 17.7227ZM135.551 27.6829V18.9413H133.004V27.6829H135.551ZM140.262 27.8129C141.121 27.8129 141.864 27.6964 142.49 27.4635C143.116 27.2307 143.592 26.903 143.919 26.4805C144.245 26.0581 144.409 25.576 144.409 25.0344C144.409 24.3953 144.24 23.8971 143.903 23.5396C143.565 23.1821 143.168 22.9357 142.711 22.8003C142.253 22.6649 141.666 22.5376 140.947 22.4185C140.305 22.321 139.837 22.2181 139.543 22.1097C139.249 22.0014 139.102 21.8119 139.102 21.5411C139.102 21.3027 139.238 21.1078 139.51 20.9561C139.783 20.8045 140.191 20.7286 140.735 20.7286C141.649 20.7286 142.493 20.9453 143.266 21.3786L144.115 19.575C143.712 19.3367 143.203 19.1498 142.588 19.0144C141.973 18.879 141.355 18.8113 140.735 18.8113C139.897 18.8113 139.17 18.9305 138.555 19.1688C137.94 19.4071 137.472 19.7402 137.151 20.1681C136.83 20.5959 136.669 21.0861 136.669 21.6385C136.669 22.2993 136.841 22.8084 137.184 23.1659C137.527 23.5233 137.932 23.7725 138.4 23.9133C138.868 24.0541 139.461 24.1787 140.18 24.287C140.789 24.3628 141.241 24.4549 141.535 24.5632C141.829 24.6716 141.976 24.8503 141.976 25.0994C141.976 25.6302 141.437 25.8956 140.359 25.8956C139.826 25.8956 139.282 25.8171 138.727 25.66C138.172 25.5029 137.698 25.2998 137.306 25.0507L136.457 26.8705C136.871 27.1413 137.426 27.3661 138.123 27.5448C138.819 27.7235 139.532 27.8129 140.262 27.8129ZM149.723 27.8129C151.313 27.8129 152.521 27.3417 153.348 26.3993L151.993 24.9369C151.688 25.2294 151.359 25.4433 151.005 25.5787C150.651 25.7142 150.246 25.7819 149.789 25.7819C149.125 25.7819 148.57 25.6248 148.123 25.3107C147.677 24.9965 147.394 24.5686 147.274 24.027H153.92C153.952 23.6046 153.969 23.3771 153.969 23.3446C153.969 22.4347 153.77 21.6358 153.373 20.948C152.975 20.2601 152.428 19.7321 151.732 19.3638C151.035 18.9955 150.257 18.8113 149.397 18.8113C148.515 18.8113 147.718 19.0036 147.005 19.3882C146.292 19.7727 145.731 20.3089 145.323 20.9967C144.915 21.6846 144.711 22.4564 144.711 23.3121C144.711 24.1787 144.918 24.9532 145.331 25.6356C145.745 26.318 146.333 26.8515 147.095 27.2361C147.857 27.6206 148.733 27.8129 149.723 27.8129ZM151.568 22.5484H147.242C147.329 21.9852 147.568 21.5411 147.96 21.2161C148.352 20.8911 148.836 20.7286 149.413 20.7286C149.979 20.7286 150.458 20.8938 150.85 21.2242C151.242 21.5546 151.481 21.996 151.568 22.5484Z" fill="white"/>
<path fill-rule="evenodd" clip-rule="evenodd" d="M46.023 2C70.6032 2 90.5294 21.9087 90.5294 46.4674C90.5294 58.7923 85.5108 69.946 77.404 78L45.8048 46.4284L14.4239 77.7818C6.44526 69.7452 1.5166 58.6814 1.5166 46.4674C1.5166 21.9087 21.4428 2 46.023 2Z" stroke="white" stroke-width="2.81147" stroke-linecap="round" stroke-linejoin="round" stroke-dasharray="79.45 5.2"/>
<path opacity="0.4" fill-rule="evenodd" clip-rule="evenodd" d="M46.0225 9.21094C56.3196 9.21094 65.6419 13.381 72.3899 20.1231C79.1379 26.8652 83.3117 36.1793 83.3117 46.4674C83.3117 54.1932 80.9583 61.37 76.9281 67.3206L76.9254 67.3245L45.8044 36.2306L14.9444 67.0635C11.0197 61.1638 8.7334 54.0823 8.7334 46.4674C8.7334 36.1793 12.9071 26.8652 19.6551 20.1231C26.4031 13.381 35.7254 9.21094 46.0225 9.21094Z" stroke="white" stroke-width="1.46685" stroke-linecap="round" stroke-linejoin="round" stroke-dasharray="79.45 5.81"/>
<path opacity="0.2" fill-rule="evenodd" clip-rule="evenodd" d="M46.0242 14.8994C54.7491 14.8994 62.648 18.4328 68.3656 24.1454C74.0833 29.8581 77.6198 37.75 77.6198 46.4673C77.6198 50.0588 77.02 53.5105 75.9144 56.7274L75.5192 57.8726L45.8061 28.1856L16.4259 57.54C15.1344 54.0945 14.4287 50.3631 14.4287 46.4673C14.4287 37.75 17.9652 29.8581 23.6828 24.1454C29.4005 18.4328 37.2994 14.8994 46.0242 14.8994Z" stroke="white" stroke-width="1.46685" stroke-linecap="round" stroke-linejoin="round" stroke-dasharray="90.46 3.97"/>
<path opacity="0.1" fill-rule="evenodd" clip-rule="evenodd" d="M46.0226 20.1875C53.2859 20.1875 59.8617 23.129 64.6215 27.8847C69.3814 32.6404 72.3255 39.2104 72.3255 46.4673C72.3255 46.7059 72.3223 46.9438 72.316 47.1808L45.8042 20.7075L19.7214 46.7674C19.7203 46.6675 19.7197 46.5675 19.7197 46.4673C19.7197 39.2104 22.6638 32.6404 27.4237 27.8847C32.1835 23.129 38.7593 20.1875 46.0226 20.1875Z" stroke="white" stroke-width="1.46685" stroke-linecap="round" stroke-linejoin="round" stroke-dasharray="46.45 3.97"/>
</svg>
