<svg width="224" height="76" viewBox="0 0 224 76" fill="none" xmlns="http://www.w3.org/2000/svg">
<path d="M109.682 45.6203C111.66 45.6203 113.369 45.3481 114.809 44.8036C116.248 44.2592 117.344 43.4932 118.095 42.5056C118.846 41.518 119.222 40.3912 119.222 39.1251C119.222 37.6311 118.834 36.4662 118.057 35.6306C117.281 34.795 116.367 34.2189 115.316 33.9023C114.264 33.5858 112.912 33.2883 111.259 33.0097C109.782 32.7818 108.705 32.5413 108.029 32.288C107.353 32.0348 107.015 31.5917 107.015 30.9586C107.015 30.4015 107.328 29.9457 107.954 29.5912C108.58 29.2367 109.519 29.0594 110.771 29.0594C112.874 29.0594 114.815 29.5659 116.593 30.5788L118.546 26.3626C117.619 25.8055 116.449 25.3687 115.034 25.0522C113.619 24.7356 112.198 24.5774 110.771 24.5774C108.843 24.5774 107.172 24.8559 105.757 25.413C104.342 25.9701 103.266 26.7488 102.527 27.749C101.788 28.7492 101.419 29.8951 101.419 31.1865C101.419 32.7312 101.813 33.9213 102.602 34.757C103.391 35.5926 104.323 36.175 105.4 36.5042C106.477 36.8334 107.841 37.1246 109.494 37.3778C110.896 37.5551 111.935 37.7703 112.611 38.0236C113.287 38.2768 113.625 38.6946 113.625 39.277C113.625 40.5178 112.386 41.1382 109.907 41.1382C108.68 41.1382 107.428 40.9546 106.151 40.5874C104.874 40.2203 103.785 39.7455 102.884 39.1631L100.931 43.4172C101.882 44.0503 103.159 44.5757 104.762 44.9935C106.364 45.4114 108.004 45.6203 109.682 45.6203ZM131.816 45.6203C133.945 45.6203 135.848 45.1708 137.525 44.2719C139.203 43.3729 140.517 42.1258 141.469 40.5305C142.42 38.9352 142.896 37.1246 142.896 35.0988C142.896 33.073 142.42 31.2625 141.469 29.6672C140.517 28.0719 139.203 26.8247 137.525 25.9258C135.848 25.0269 133.945 24.5774 131.816 24.5774C129.688 24.5774 127.779 25.0269 126.089 25.9258C124.399 26.8247 123.078 28.0719 122.126 29.6672C121.175 31.2625 120.699 33.073 120.699 35.0988C120.699 37.1246 121.175 38.9352 122.126 40.5305C123.078 42.1258 124.399 43.3729 126.089 44.2719C127.779 45.1708 129.688 45.6203 131.816 45.6203ZM131.816 40.7584C130.314 40.7584 129.075 40.2456 128.098 39.22C127.122 38.1945 126.633 36.8207 126.633 35.0988C126.633 33.3769 127.122 32.0032 128.098 30.9776C129.075 29.9521 130.314 29.4393 131.816 29.4393C133.319 29.4393 134.552 29.9521 135.516 30.9776C136.48 32.0032 136.962 33.3769 136.962 35.0988C136.962 36.8207 136.48 38.1945 135.516 39.22C134.552 40.2456 133.319 40.7584 131.816 40.7584ZM152.035 45.3164V17.1326H146.176V45.3164H152.035ZM162.715 45.3164V35.6686C162.715 33.7694 163.19 32.345 164.142 31.3954C165.093 30.4458 166.408 29.971 168.086 29.971C168.311 29.971 168.749 29.9964 169.4 30.047V24.5774C167.848 24.5774 166.477 24.8306 165.287 25.337C164.098 25.8435 163.153 26.5905 162.452 27.5781V24.8812H156.856V45.3164H162.715ZM175.197 22.0325C176.273 22.0325 177.15 21.7096 177.826 21.0639C178.502 20.4182 178.84 19.6015 178.84 18.614C178.84 17.7024 178.502 16.9427 177.826 16.3349C177.15 15.7272 176.273 15.4233 175.197 15.4233C174.12 15.4233 173.244 15.7399 172.568 16.3729C171.892 17.006 171.553 17.791 171.553 18.7279C171.553 19.6648 171.892 20.4498 172.568 21.0829C173.244 21.7159 174.12 22.0325 175.197 22.0325ZM178.126 45.3164V24.8812H172.267V45.3164H178.126ZM189.744 45.6203C191.722 45.6203 193.431 45.3481 194.871 44.8036C196.311 44.2592 197.406 43.4932 198.158 42.5056C198.909 41.518 199.284 40.3912 199.284 39.1251C199.284 37.6311 198.896 36.4662 198.12 35.6306C197.344 34.795 196.43 34.2189 195.378 33.9023C194.327 33.5858 192.974 33.2883 191.322 33.0097C189.845 32.7818 188.768 32.5413 188.092 32.288C187.416 32.0348 187.078 31.5917 187.078 30.9586C187.078 30.4015 187.391 29.9457 188.017 29.5912C188.643 29.2367 189.582 29.0594 190.834 29.0594C192.937 29.0594 194.877 29.5659 196.655 30.5788L198.608 26.3626C197.682 25.8055 196.511 25.3687 195.097 25.0522C193.682 24.7356 192.261 24.5774 190.834 24.5774C188.906 24.5774 187.234 24.8559 185.82 25.413C184.405 25.9701 183.328 26.7488 182.589 27.749C181.851 28.7492 181.481 29.8951 181.481 31.1865C181.481 32.7312 181.876 33.9213 182.665 34.757C183.453 35.5926 184.386 36.175 185.463 36.5042C186.539 36.8334 187.904 37.1246 189.557 37.3778C190.959 37.5551 191.998 37.7703 192.674 38.0236C193.35 38.2768 193.688 38.6946 193.688 39.277C193.688 40.5178 192.449 41.1382 189.97 41.1382C188.743 41.1382 187.491 40.9546 186.214 40.5874C184.937 40.2203 183.848 39.7455 182.946 39.1631L180.993 43.4172C181.945 44.0503 183.222 44.5757 184.824 44.9935C186.427 45.4114 188.067 45.6203 189.744 45.6203ZM212.292 45.6203C215.948 45.6203 218.727 44.5187 220.63 42.3157L217.513 38.8972C216.812 39.5809 216.054 40.081 215.24 40.3975C214.427 40.7141 213.494 40.8723 212.442 40.8723C210.915 40.8723 209.638 40.5052 208.611 39.7708C207.585 39.0365 206.934 38.0362 206.658 36.7701H221.945C222.02 35.7825 222.057 35.2508 222.057 35.1748C222.057 33.0477 221.6 31.1802 220.686 29.5722C219.773 27.9642 218.514 26.7298 216.912 25.8688C215.309 25.0079 213.519 24.5774 211.541 24.5774C209.513 24.5774 207.679 25.0269 206.039 25.9258C204.399 26.8247 203.109 28.0782 202.17 29.6862C201.231 31.2941 200.762 33.0984 200.762 35.0988C200.762 37.1246 201.237 38.9352 202.189 40.5305C203.14 42.1258 204.492 43.3729 206.245 44.2719C207.998 45.1708 210.014 45.6203 212.292 45.6203ZM216.536 33.3136H206.583C206.784 31.9968 207.334 30.9586 208.236 30.1989C209.137 29.4393 210.251 29.0594 211.579 29.0594C212.881 29.0594 213.982 29.4456 214.884 30.2179C215.785 30.9903 216.336 32.0222 216.536 33.3136Z" fill="white"/>
<path opacity="0.5" d="M104.122 64.7913V54.5796H107.589V53.2648H104.079V51.9061C104.079 51.1903 104.249 50.6498 104.588 50.2845C104.928 49.9193 105.43 49.7367 106.094 49.7367C106.773 49.7367 107.336 49.9266 107.784 50.3064L108.304 49.145C108.03 48.9113 107.69 48.7323 107.286 48.6081C106.881 48.484 106.462 48.4219 106.029 48.4219C104.931 48.4219 104.082 48.7287 103.483 49.3422C102.883 49.9558 102.584 50.7885 102.584 51.8404V53.2648H100.547V54.5796H102.584V64.7913H104.122ZM112.183 50.7447C112.501 50.7447 112.768 50.6351 112.985 50.416C113.201 50.1969 113.31 49.9266 113.31 49.6052C113.31 49.313 113.201 49.061 112.985 48.8492C112.768 48.6374 112.501 48.5314 112.183 48.5314C111.865 48.5314 111.598 48.641 111.381 48.8601C111.164 49.0793 111.056 49.3349 111.056 49.6271C111.056 49.9339 111.164 50.1969 111.381 50.416C111.598 50.6351 111.865 50.7447 112.183 50.7447ZM112.941 64.7913V53.2648H111.403V64.7913H112.941ZM118.409 64.7913V58.7432C118.409 57.443 118.766 56.424 119.482 55.6862C120.197 54.9485 121.168 54.5796 122.396 54.5796C123.494 54.5796 124.339 54.8937 124.931 55.5219C125.523 56.1501 125.82 57.0631 125.82 58.2611V64.7913H127.358V58.1077C127.358 56.5007 126.935 55.2772 126.09 54.4372C125.245 53.5971 124.108 53.1771 122.678 53.1771C121.695 53.1771 120.832 53.3707 120.088 53.7578C119.344 54.145 118.763 54.6892 118.344 55.3904V53.2648H116.87V64.7913H118.409ZM134.386 64.9009C135.31 64.9009 136.108 64.7329 136.78 64.3969C137.452 64.0609 137.961 63.5934 138.308 62.9944V64.7913H139.781V57.6475C139.781 56.172 139.384 55.058 138.589 54.3057C137.795 53.5533 136.654 53.1771 135.166 53.1771C134.27 53.1771 133.418 53.3123 132.609 53.5825C131.8 53.8528 131.107 54.2363 130.529 54.733L131.222 55.8944C131.699 55.4707 132.27 55.1384 132.934 54.8973C133.599 54.6563 134.292 54.5358 135.014 54.5358C136.069 54.5358 136.87 54.7951 137.419 55.3137C137.968 55.8323 138.243 56.5883 138.243 57.5818V58.283H134.624C133.093 58.283 131.977 58.5825 131.276 59.1814C130.576 59.7804 130.225 60.5693 130.225 61.5481C130.225 62.5561 130.601 63.3669 131.352 63.9805C132.103 64.5941 133.115 64.9009 134.386 64.9009ZM134.624 63.6737C133.714 63.6737 133.006 63.4802 132.501 63.093C131.995 62.7059 131.742 62.1763 131.742 61.5043C131.742 60.131 132.717 59.4444 134.668 59.4444H138.243V61.329C137.939 62.0887 137.477 62.6694 136.856 63.0711C136.235 63.4729 135.491 63.6737 134.624 63.6737ZM145.141 64.7913V58.7432C145.141 57.443 145.498 56.424 146.213 55.6862C146.928 54.9485 147.9 54.5796 149.128 54.5796C150.225 54.5796 151.071 54.8937 151.663 55.5219C152.255 56.1501 152.551 57.0631 152.551 58.2611V64.7913H154.09V58.1077C154.09 56.5007 153.667 55.2772 152.822 54.4372C151.977 53.5971 150.839 53.1771 149.409 53.1771C148.427 53.1771 147.564 53.3707 146.82 53.7578C146.076 54.145 145.495 54.6892 145.076 55.3904V53.2648H143.602V64.7913H145.141ZM162.678 64.9009C163.645 64.9009 164.519 64.7073 165.3 64.3202C166.08 63.933 166.694 63.3669 167.141 62.6219L165.993 61.833C165.617 62.4027 165.141 62.8264 164.563 63.104C163.985 63.3816 163.357 63.5203 162.678 63.5203C161.854 63.5203 161.114 63.3341 160.457 62.9615C159.799 62.589 159.287 62.0631 158.918 61.3838C158.55 60.7044 158.366 59.9192 158.366 59.0281C158.366 58.1515 158.55 57.3699 158.918 56.6833C159.287 55.9967 159.799 55.4671 160.457 55.0946C161.114 54.722 161.854 54.5358 162.678 54.5358C163.357 54.5358 163.985 54.6782 164.563 54.9631C165.141 55.248 165.617 55.6753 165.993 56.245L167.141 55.4561C166.694 54.7111 166.083 54.145 165.31 53.7578C164.537 53.3707 163.66 53.1771 162.678 53.1771C161.551 53.1771 160.543 53.4255 159.655 53.9222C158.766 54.4189 158.069 55.1128 157.564 56.004C157.058 56.8951 156.805 57.9032 156.805 59.0281C156.805 60.1529 157.058 61.1646 157.564 62.0631C158.069 62.9615 158.766 63.6591 159.655 64.1558C160.543 64.6525 161.551 64.9009 162.678 64.9009ZM174.429 64.9009C175.339 64.9009 176.173 64.7402 176.932 64.4188C177.69 64.0974 178.322 63.6299 178.828 63.0163L177.961 62.0083C177.528 62.505 177.015 62.8812 176.423 63.1368C175.83 63.3925 175.18 63.5203 174.472 63.5203C173.216 63.5203 172.176 63.1515 171.352 62.4137C170.529 61.6759 170.074 60.7081 169.987 59.5101H179.521L179.543 59.0281C179.543 57.8885 179.305 56.8769 178.828 55.993C178.351 55.1092 177.694 54.4189 176.856 53.9222C176.018 53.4255 175.072 53.1771 174.017 53.1771C172.963 53.1771 172.013 53.4255 171.168 53.9222C170.323 54.4189 169.658 55.1128 169.175 56.004C168.691 56.8951 168.449 57.9032 168.449 59.0281C168.449 60.1529 168.701 61.161 169.207 62.0521C169.713 62.9433 170.417 63.6409 171.32 64.1449C172.223 64.6489 173.259 64.9009 174.429 64.9009ZM178.069 58.3487H169.987C170.088 57.2092 170.511 56.2852 171.255 55.5767C171.999 54.8681 172.92 54.5139 174.017 54.5139C175.13 54.5139 176.058 54.8681 176.802 55.5767C177.546 56.2852 177.968 57.2092 178.069 58.3487Z" fill="white"/>
<path fill-rule="evenodd" clip-rule="evenodd" d="M12.9978 75.9578L12.4875 75.4333C-4.18246 58.019 -4.01236 30.2349 12.9978 13.0323L13.5113 12.5213C30.386 -4.00514 57.1126 -4.17207 74.1864 12.0205L74.7008 12.5162L75.2195 13.0323L75.7298 13.5568C92.3998 30.9711 92.2297 58.7552 75.2195 75.9578L44.1086 44.495L12.9978 75.9578Z" fill="url(#paint0_linear_1721_1522)"/>
<path fill-rule="evenodd" clip-rule="evenodd" d="M75.2195 13.0747L75.7298 13.5992C92.3998 31.0135 92.2297 58.7975 75.2195 76.0002L44.1086 44.5374L75.2195 13.0747ZM12.9978 13.0747L44.1086 44.5374L12.9978 76.0002L12.4875 75.4757C-4.18246 58.0614 -4.01236 30.2773 12.9978 13.0747Z" fill="url(#paint1_linear_1721_1522)"/>
<path fill-rule="evenodd" clip-rule="evenodd" d="M12.9961 13.0748L44.1069 44.5375L75.2177 13.0748L74.6991 12.5587C57.6518 -4.1313 30.5547 -4.12959 13.5095 12.5638L12.9961 13.0748Z" fill="url(#paint2_linear_1721_1522)"/>
<defs>
<linearGradient id="paint0_linear_1721_1522" x1="77.2433" y1="56.6188" x2="21.1202" y2="9.48011" gradientUnits="userSpaceOnUse">
<stop stop-color="#FF8D38"/>
<stop offset="1" stop-color="#FFD945"/>
</linearGradient>
<linearGradient id="paint1_linear_1721_1522" x1="77.2433" y1="55.135" x2="24.5061" y2="18.44" gradientUnits="userSpaceOnUse">
<stop stop-color="#FF8D38"/>
<stop offset="1" stop-color="#FFD945"/>
</linearGradient>
<linearGradient id="paint2_linear_1721_1522" x1="44.1069" y1="33.4138" x2="67.7066" y2="10.0907" gradientUnits="userSpaceOnUse">
<stop stop-color="#FF8D38"/>
<stop offset="1" stop-color="#FFD945"/>
</linearGradient>
</defs>
</svg>
